<?xml version="1.0" encoding="UTF-8" standalone="no"?>
<!-- Created with Inkscape (http://www.inkscape.org/) -->

<svg
   width="66.145905mm"
   height="82.334793mm"
   viewBox="0 0 66.145905 82.334793"
   version="1.1"
   id="svg5"
   xmlns="http://www.w3.org/2000/svg"
   xmlns:svg="http://www.w3.org/2000/svg">
  <defs
     id="defs2" />
  <g
     id="layer1"
     transform="translate(-63.878813,-180.55999)">
    <path
       style="fill:#000000;stroke-width:0.176389"
       d="m 67.318396,262.77814 c -0.194027,-0.0472 -0.769496,-0.16679 -1.278819,-0.2657 l -0.926042,-0.17982 v -0.84004 c 0,-0.46202 0.0417,-0.88174 0.09267,-0.9327 0.05097,-0.051 0.626435,0.0642 1.278819,0.25593 1.742591,0.51214 5.31489,0.53625 6.299103,0.0425 1.34484,-0.67465 1.906168,-2.32204 1.234064,-3.62175 -0.464431,-0.89811 -1.130624,-1.10386 -3.988894,-1.23194 -2.443241,-0.10949 -2.631235,-0.14415 -3.527778,-0.65052 -1.129675,-0.63803 -1.713909,-1.61476 -1.772004,-2.96246 -0.131288,-3.04565 1.239349,-4.46666 4.686086,-4.8583 1.52022,-0.17274 4.46283,0.0132 5.767259,0.36446 0.687895,0.18524 0.6904,0.18916 0.6904,1.08162 0,0.88615 -0.0052,0.89454 -0.48507,0.78595 -3.405539,-0.77059 -5.869561,-0.8353 -7.185519,-0.1887 -1.381422,0.67876 -1.913871,2.31311 -1.157634,3.55337 0.536412,0.87973 0.934054,1.00044 3.712945,1.12713 2.825747,0.12883 3.586865,0.34039 4.538691,1.2616 0.725459,0.70212 0.996657,1.51632 0.985368,2.95829 -0.01542,1.97008 -0.757133,3.16938 -2.413893,3.90311 -0.79161,0.35059 -1.237587,0.40614 -3.551138,0.44238 -1.455208,0.0228 -2.804583,0.003 -2.998611,-0.0444 z m 13.039396,-0.22562 c -0.499323,-0.22678 -0.822612,-0.53541 -1.058333,-1.01036 -0.308869,-0.62232 -0.344558,-1.17962 -0.396783,-6.19598 l -0.05739,-5.51216 h 0.701252 c 0.695699,0 0.702927,0.007 0.912827,0.88195 l 0.211574,0.88194 h 1.48172 1.48171 v 0.79375 0.79375 h -1.32292 -1.322918 v 3.45118 c 0,4.31375 0.06257,4.47874 1.700498,4.48362 l 0.90674,0.003 0.0809,0.66146 c 0.0445,0.3638 0.0447,0.76068 3.5e-4,0.88194 -0.13023,0.35688 -2.45874,0.27706 -3.319292,-0.11379 z m 9.450187,0.16459 c -3.16643,-0.60605 -4.71601,-3.26377 -4.06904,-6.97891 0.25496,-1.46414 0.67995,-2.32827 1.49852,-3.04699 1.72173,-1.51169 5.5635,-1.4517 7.12649,0.11128 0.90521,0.90521 1.45744,2.91706 1.19082,4.33829 l -0.11833,0.63074 h -3.89579 -3.89579 l 0.094,0.7006 c 0.13016,0.97043 0.71789,1.84698 1.49867,2.23514 0.52148,0.25925 1.06281,0.32746 2.59895,0.32746 1.06715,0 2.24247,-0.064 2.61181,-0.14218 l 0.67152,-0.14217 -0.0542,0.83591 c -0.0493,0.76108 -0.10155,0.84876 -0.58334,0.97939 -0.82523,0.22373 -3.79404,0.31992 -4.6743,0.15144 z m 3.77169,-6.67602 c 0.21486,-0.34767 -0.31794,-1.64941 -0.87547,-2.13893 -1.74098,-1.52859 -5.01289,-0.27318 -5.01289,1.92342 0,0.3458 0.10232,0.35844 2.90001,0.35844 1.595,0 2.93976,-0.0643 2.98835,-0.14293 z m 4.87136,-0.82721 v -7.67291 l 3.395491,0.003 c 2.23318,0.002 3.79587,0.0879 4.56513,0.25098 3.52595,0.74736 5.15881,2.98345 5.14315,7.04321 -0.0109,2.82924 -0.63905,4.75608 -1.99127,6.10829 -1.5082,1.50821 -3.22728,1.92478 -7.98159,1.93413 l -3.130911,0.006 z m 8.424231,5.32912 c 1.82014,-0.95361 2.60008,-2.658 2.60008,-5.68189 0,-1.8031 -0.0374,-2.01511 -0.52917,-2.9986 -0.60013,-1.20024 -1.61657,-2.07661 -2.78554,-2.40168 -0.40823,-0.11352 -1.85349,-0.2149 -3.21168,-0.22528 l -2.46944,-0.0189 -0.0465,5.96867 -0.0465,5.96866 2.78049,-0.0625 c 2.6313,-0.0591 2.83027,-0.0885 3.70819,-0.54851 z m 7.62716,-5.32912 v -7.67291 h 0.97014 0.97014 v 3.35139 3.35139 h 4.49792 4.49791 v -3.35139 -3.35139 h 1.05834 1.05833 v 7.67291 7.67292 h -1.05833 -1.05834 v -3.53081 -3.5308 l -4.45382,0.0471 -4.45382,0.0471 -0.0478,3.48368 -0.0478,3.48368 h -0.96641 -0.96641 z m -0.41157,-16.78634 c -0.0647,-0.0647 -0.11759,-0.76842 -0.11759,-1.56389 v -1.44629 l -6.07916,-0.0812 c -3.34354,-0.0447 -8.621971,-0.0447 -11.729861,-8e-5 l -5.65071,0.0811 v 1.47578 c 0,1.19421 -0.0505,1.47577 -0.26458,1.47577 -0.21417,0 -0.26458,-0.28208 -0.26458,-1.48043 0,-1.1094 -0.0622,-1.50429 -0.24806,-1.57562 -0.13644,-0.0524 -2.59706,-0.0484 -5.46806,0.009 l -5.219992,0.10393 v 1.4717 c 0,1.19058 -0.05054,1.47169 -0.264584,1.47169 -0.214109,0 -0.264583,-0.28161 -0.264583,-1.47622 v -1.47623 l -0.661458,-0.10933 c -0.847812,-0.14014 -4.770725,-0.14165 -5.291667,-0.002 -0.371555,0.0996 -0.396875,0.2007 -0.396875,1.58509 0,1.19685 -0.05044,1.47874 -0.264583,1.47874 -0.214124,0 -0.264583,-0.28173 -0.264583,-1.47725 v -1.47726 l -0.551215,-0.11055 c -0.303169,-0.0606 -2.049419,-0.11025 -3.880556,-0.11025 -2.841821,0 -3.32934,-0.0387 -3.32934,-0.26458 0,-0.22637 0.509714,-0.26458 3.529093,-0.26458 h 3.529093 l -0.04541,-11.1566 -0.04541,-11.1566 -3.483681,-0.0478 c -2.122131,-0.0291 -3.48368,-0.11531 -3.48368,-0.22049 0,-0.10674 1.319385,-0.17266 3.456097,-0.17266 3.307752,0 3.460056,-0.0151 3.54835,-0.35278 0.05106,-0.19525 0.240597,-0.35278 0.424458,-0.35278 0.251525,0 0.332206,-0.12851 0.332206,-0.52916 0,-0.29104 0.07937,-0.52917 0.176389,-0.52917 0.09701,0 0.176388,0.23813 0.176388,0.52917 v 0.52916 h 2.822223 2.822222 v -4.03666 -4.03666 l 0.440972,-0.28893 c 0.361678,-0.23698 0.440972,-0.43094 0.440972,-1.07862 0,-0.43433 0.07937,-0.78969 0.176389,-0.78969 0.09701,0 0.176389,0.27782 0.176389,0.61737 0,0.33954 0.08282,0.61736 0.184046,0.61736 0.282534,0 10.10455,-5.66319 10.35518,-5.97061 0.16198,-0.19866 0.22049,-1.33313 0.22049,-4.27479 0,-3.39671 0.0401,-4.01977 0.26458,-4.10589 0.223,-0.0856 0.26459,-0.65684 0.26459,-3.63484 0,-3.0002 0.0393,-3.53332 0.26077,-3.53332 0.21924,0 0.26841,0.5321 0.30868,3.34093 l 0.0479,3.34093 5.97262,-3.4446 c 3.351501,-1.93291 6.099531,-3.41006 6.261811,-3.3659 0.15905,0.0433 2.71012,1.47687 5.66904,3.18574 l 5.37986,3.10704 0.0483,-2.99388 c 0.0403,-2.50055 0.0912,-2.99387 0.30868,-2.99387 0.22001,0 0.26042,0.4936 0.26042,3.18054 0,2.66442 0.0429,3.19701 0.26458,3.28206 0.22016,0.0845 0.26459,0.58258 0.26459,2.96649 v 2.86496 l 3.87577,2.23145 c 2.13166,1.2273 3.91759,2.23145 3.96875,2.23145 0.0511,0 0.093,-0.59532 0.093,-1.32292 0,-1.05833 0.0529,-1.32292 0.26458,-1.32292 0.21544,0 0.26458,0.29266 0.26458,1.57562 0,1.42069 0.0347,1.58662 0.35278,1.68758 0.34472,0.10941 0.35278,0.26688 0.35278,6.89105 v 6.77909 h 2.82222 c 1.76389,0 2.82222,0.0661 2.82222,0.17639 0,0.11026 -1.06039,0.17639 -2.82839,0.17639 h -2.82839 l 0.0503,1.79848 0.0503,1.79849 2.7755,1.597 c 1.52652,0.87835 2.77667,1.69622 2.77812,1.81749 0.001,0.12126 -0.0483,0.22048 -0.1105,0.22048 -0.0622,0 -1.2904,-0.67468 -2.72926,-1.4993 -1.43887,-0.82462 -2.65796,-1.49931 -2.70909,-1.49931 -0.0511,0 -0.093,4.08781 -0.093,9.08403 v 9.08403 h 2.82222 c 2.39105,0 2.82222,0.0404 2.82222,0.26458 0,0.22333 -0.40912,0.26458 -2.62378,0.26458 -1.44308,0 -2.87183,0.0496 -3.175,0.11025 l -0.55122,0.11024 v 1.56545 c 0,0.92604 -0.072,1.56545 -0.17639,1.56545 -0.10452,0 -0.17638,-0.64676 -0.17638,-1.5875 v -1.5875 h -4.40973 -4.40972 v 1.5875 c 0,1.45601 -0.0931,1.78841 -0.41157,1.46991 z M 77.637146,223.90486 v -10.75973 h -2.469445 -2.469444 v 10.75973 10.75972 h 2.469444 2.469445 z m 11.994443,-0.35278 v -11.1125 h -0.68094 c -0.37451,0 -1.0492,-0.0505 -1.4993,-0.11217 l -0.81837,-0.11217 v 11.22467 11.22467 h 1.4993 1.49931 z m 14.463891,10.58608 v -0.52642 l 4.98298,-0.0469 4.98299,-0.0468 v -1.23472 -1.23472 l -5.24757,-0.0467 -5.24757,-0.0467 v -6.70015 -6.70015 h -1.94028 -1.940271 v 8.55486 8.55486 h 2.204861 2.20486 z M 84.692699,223.37569 v -10.23056 h -2.55764 -2.557636 v 10.23056 10.23055 h 2.557636 2.55764 z m 13.17958,6.87917 c 0.0212,-1.79476 0.0411,-5.78336 0.0441,-8.86355 l 0.005,-5.60034 h 2.822221 2.82222 v -1.6757 -1.67569 h -6.085411 -6.08542 v 10.58731 10.58731 l 3.2191,-0.0481 3.21909,-0.0481 z m 24.744031,-5.77725 v -9.12864 l -2.68993,-1.53851 -2.68993,-1.53851 -1.25543,0.10744 -1.25543,0.10743 -0.0948,1.51967 c -0.0521,0.83582 -0.058,1.57925 -0.013,1.65207 0.045,0.0728 1.22808,0.13241 2.62906,0.13241 h 2.54723 v 7.58472 7.58472 h -2.64584 -2.64583 v 1.32292 1.32291 h 4.05695 4.05694 z m -8.53045,4.45433 c 0.0558,-0.14552 0.17241,-0.26458 0.25904,-0.26458 0.0866,0 0.15752,0.11906 0.15752,0.26458 0,0.21754 0.31358,0.26458 1.76389,0.26458 h 1.76389 v -5.82722 -5.82722 l -1.71979,0.0505 -1.71979,0.0505 -0.0501,1.89618 c -0.0666,2.52217 -0.39091,2.48558 -0.39091,-0.0441 v -1.94027 h -4.32152 -4.32153 v 5.82083 5.82083 h 4.23887 c 3.60517,0 4.25405,-0.0395 4.3404,-0.26458 z m 0.0638,-1.41111 c 0,-0.14552 0.0794,-0.26459 0.17639,-0.26459 0.097,0 0.17639,0.11907 0.17639,0.26459 0,0.14552 -0.0794,0.26458 -0.17639,0.26458 -0.097,0 -0.17639,-0.11906 -0.17639,-0.26458 z m 0,-1.5875 c 0,-0.14552 0.0794,-0.26459 0.17639,-0.26459 0.097,0 0.17639,0.11907 0.17639,0.26459 0,0.14552 -0.0794,0.26458 -0.17639,0.26458 -0.097,0 -0.17639,-0.11906 -0.17639,-0.26458 z m 0,-1.5875 c 0,-0.14552 0.0794,-0.26459 0.17639,-0.26459 0.097,0 0.17639,0.11907 0.17639,0.26459 0,0.14552 -0.0794,0.26458 -0.17639,0.26458 -0.097,0 -0.17639,-0.11906 -0.17639,-0.26458 z m 0,-1.41111 c 0,-0.14552 0.0794,-0.26459 0.17639,-0.26459 0.097,0 0.17639,0.11907 0.17639,0.26459 0,0.14552 -0.0794,0.26458 -0.17639,0.26458 -0.097,0 -0.17639,-0.11906 -0.17639,-0.26458 z m 0,-8.81945 v -1.67569 h -4.32152 -4.32153 v 1.67569 1.6757 h 4.32153 4.32152 z m 8.41313,-7.0112 -0.0346,-7.62857 -3.52778,-2.05961 c -1.94028,-1.13279 -3.58731,-2.06556 -3.66007,-2.07283 -0.0728,-0.007 -0.13229,3.16179 -0.13229,7.04235 0,6.15401 -0.0338,7.05556 -0.26459,7.05556 -0.15715,0 -0.26458,0.16189 -0.26458,0.39871 0,0.31531 0.32709,0.5899 1.5636,1.31266 1.00491,0.58737 1.68952,0.881 1.91599,0.82178 0.24666,-0.0645 0.37903,0.01 0.4412,0.24748 0.0733,0.28017 3.42345,2.43755 3.87497,2.49532 0.0676,0.009 0.10725,-3.41714 0.0882,-7.61285 z m -3.12146,4.98273 c 0,-0.097 0.11906,-0.17639 0.26458,-0.17639 0.14552,0 0.26459,0.0794 0.26459,0.17639 0,0.097 -0.11907,0.17639 -0.26459,0.17639 -0.14552,0 -0.26458,-0.0794 -0.26458,-0.17639 z m 1.41111,0 c 0,-0.097 0.11906,-0.17639 0.26458,-0.17639 0.14553,0 0.26459,0.0794 0.26459,0.17639 0,0.097 -0.11906,0.17639 -0.26459,0.17639 -0.14552,0 -0.26458,-0.0794 -0.26458,-0.17639 z m -31.262791,-6.93661 c 0.0387,-5.57913 0.007,-6.66262 -0.19561,-6.61459 -0.13301,0.0316 -2.39351,1.28776 -5.02334,2.79147 l -4.781512,2.73403 -0.0059,3.57188 -0.0059,3.57187 h 3.527772 c 3.43349,0 3.52778,0.01 3.52778,0.35992 0,0.33734 0.0912,0.35669 1.45521,0.30868 l 1.45521,-0.0512 z m 13.974921,3.01196 -0.002,-3.74827 -5.056651,-2.91042 c -2.78116,-1.60073 -5.5188,-3.17298 -6.08365,-3.49389 l -1.027,-0.58348 v 7.24216 7.24216 h 6.08542 6.085411 z m 10.55114,3.02086 -0.0542,-0.7274 -3.96875,-2.28337 c -2.18281,-1.25586 -4.10766,-2.36007 -4.27743,-2.45381 -0.28887,-0.1595 -0.30868,0.0337 -0.30868,3.01077 v 3.18121 h 4.33167 4.33167 z m 1.57788,0.19488 c -0.46053,-0.2892 -0.87725,-0.52581 -0.92604,-0.52581 -0.0488,0 -0.0887,0.23812 -0.0887,0.52916 0,0.5212 0.0139,0.52912 0.92604,0.52582 l 0.92604,-0.003 z m -1.54393,-1.67234 c 0,-0.14649 -0.15656,-0.26458 -0.35077,-0.26458 -0.34346,0 -0.35174,-0.1464 -0.39688,-7.01888 l -0.0461,-7.01888 -3.92465,2.2765 -3.92465,2.27651 v 2.51977 2.51977 l 4.27743,2.47627 c 2.35259,1.36194 4.29727,2.48118 4.32153,2.48718 0.0242,0.006 0.0441,-0.10814 0.0441,-0.25366 z m -10.54421,-8.33154 0.0491,-2.4225 1.23472,-0.74313 c 0.6791,-0.40871 2.87877,-1.67999 4.88816,-2.82506 l 3.65344,-2.08194 0.002,-2.38125 0.002,-2.38125 -3.03831,-1.71969 c -1.67108,-0.94583 -4.04433,-2.30811 -5.27389,-3.0273 l -2.23557,-1.3076 -5.739871,3.29187 -5.73986,3.29188 -0.006,3.90312 -0.006,3.90312 5.95312,3.44615 c 3.274221,1.89538 6.010421,3.45288 6.080441,3.46112 0.07,0.008 0.1494,-1.07516 0.17639,-2.40754 z m -32.101473,7.50472 c 0.109022,-0.32707 0.488744,-0.38131 0.488744,-0.0698 0,0.1536 -0.125677,0.27928 -0.279282,0.27928 -0.153605,0 -0.247863,-0.0943 -0.209462,-0.20946 z m 0.07717,-1.31925 c -0.20296,-0.20296 -0.128454,-0.41157 0.14699,-0.41157 0.145521,0 0.264583,0.11906 0.264583,0.26458 0,0.27545 -0.208615,0.34995 -0.411573,0.14699 z m -0.117593,-1.73449 c 0,-0.14552 0.119062,-0.26458 0.264583,-0.26458 0.145521,0 0.264583,0.11906 0.264583,0.26458 0,0.14552 -0.119062,0.26458 -0.264583,0.26458 -0.145521,0 -0.264583,-0.11906 -0.264583,-0.26458 z m 0.04042,-1.53238 c 0.109022,-0.32706 0.488744,-0.38131 0.488744,-0.0698 0,0.15361 -0.125677,0.27928 -0.279282,0.27928 -0.153605,0 -0.247863,-0.0943 -0.209462,-0.20946 z m 8.82e-4,-6.08182 c 0.03568,-3.71344 0.0996,-4.89772 0.267376,-4.95358 0.172898,-0.0576 0.220486,0.99573 0.220486,4.88016 0,4.30858 -0.03481,4.95359 -0.267373,4.95359 -0.233593,0 -0.26145,-0.61658 -0.220486,-4.88017 z m 7.014251,1.2642 c 0,-0.14552 0.07937,-0.26458 0.176389,-0.26458 0.09701,0 0.176389,0.11906 0.176389,0.26458 0,0.14552 -0.07937,0.26458 -0.176389,0.26458 -0.09701,0 -0.176389,-0.11906 -0.176389,-0.26458 z m 0,-1.5875 c 0,-0.14552 0.07937,-0.26458 0.176389,-0.26458 0.09701,0 0.176389,0.11906 0.176389,0.26458 0,0.14552 -0.07937,0.26458 -0.176389,0.26458 -0.09701,0 -0.176389,-0.11906 -0.176389,-0.26458 z m 0,-1.41111 c 0,-0.14552 0.07937,-0.26459 0.176389,-0.26459 0.09701,0 0.176389,0.11907 0.176389,0.26459 0,0.14552 -0.07937,0.26458 -0.176389,0.26458 -0.09701,0 -0.176389,-0.11906 -0.176389,-0.26458 z m 9.789582,-0.79375 c -0.0704,-0.11392 -0.0486,-0.2865 0.0484,-0.38352 0.11759,-0.11759 0.21906,-0.10734 0.3044,0.0307 0.0704,0.11392 0.0486,0.2865 -0.0484,0.38352 -0.11759,0.11759 -0.21906,0.10734 -0.3044,-0.0307 z m -9.789582,-0.79375 c 0,-0.14552 0.07937,-0.26459 0.176389,-0.26459 0.09701,0 0.176389,0.11907 0.176389,0.26459 0,0.14552 -0.07937,0.26458 -0.176389,0.26458 -0.09701,0 -0.176389,-0.11906 -0.176389,-0.26458 z m 8.386012,-0.076 c -0.13045,-0.21107 0.20137,-0.4202 0.43631,-0.275 0.19727,0.12192 0.0678,0.4392 -0.17926,0.4392 -0.0856,0 -0.20124,-0.0739 -0.25705,-0.1642 z m -1.21286,-0.65895 c -0.20296,-0.20296 -0.12845,-0.41157 0.14699,-0.41157 0.14552,0 0.26458,0.11906 0.26458,0.26458 0,0.27544 -0.20861,0.34995 -0.41157,0.14699 z m 37.453241,-0.69086 c 0,-0.1536 0.0942,-0.24786 0.20946,-0.20946 0.32706,0.10902 0.38131,0.48875 0.0698,0.48875 -0.15361,0 -0.27928,-0.12568 -0.27928,-0.27929 z m -44.626393,-2.54294 c 0,-1.53869 0.06957,-2.64583 0.166246,-2.64583 0.09144,0 0.190656,0.33392 0.220487,0.74204 l 0.05424,0.74204 2.204859,1.27668 c 1.21268,0.70217 2.28424,1.31083 2.38125,1.35257 0.1176,0.0506 0.1176,0.13619 0,0.25676 -0.1196,0.12264 -0.85776,-0.21074 -2.29305,-1.03563 -1.16417,-0.66907 -2.176201,-1.21679 -2.248962,-1.21714 -0.07276,-3.6e-4 -0.132291,0.71372 -0.132291,1.58685 0,0.94074 -0.07186,1.5875 -0.176389,1.5875 -0.109753,0 -0.176389,-0.99954 -0.17639,-2.64584 z m 5.872772,2.50155 c -0.11534,-0.0713 -0.15227,-0.22254 -0.0821,-0.33613 0.0821,-0.13284 0.21984,-0.14953 0.38609,-0.0468 0.17231,0.10649 0.19966,0.21853 0.0821,0.33612 -0.097,0.097 -0.27076,0.11807 -0.38609,0.0468 z m 38.753621,-1.34032 c 0,-0.1536 0.12567,-0.27928 0.27928,-0.27928 0.31149,0 0.25724,0.37972 -0.0698,0.48874 -0.11521,0.0384 -0.20946,-0.0559 -0.20946,-0.20946 z m 0,-1.6022 c 0,-0.14552 0.11906,-0.26458 0.26458,-0.26458 0.14552,0 0.26458,0.11906 0.26458,0.26458 0,0.14552 -0.11906,0.26458 -0.26458,0.26458 -0.14552,0 -0.26458,-0.11906 -0.26458,-0.26458 z m 0,-1.6022 c 0,-0.1536 0.0942,-0.24786 0.20946,-0.20946 0.32706,0.10902 0.38131,0.48874 0.0698,0.48874 -0.15361,0 -0.27928,-0.12567 -0.27928,-0.27928 z m 0,-3.60127 c 0,-2.07747 0.042,-2.46945 0.26458,-2.46945 0.22259,0 0.26458,0.39198 0.26458,2.46945 0,2.07747 -0.042,2.46944 -0.26458,2.46944 -0.22259,0 -0.26458,-0.39197 -0.26458,-2.46944 z"
       id="path39" />
  </g>
</svg>
